<svg width="44" height="44" viewBox="0 0 44 44" xmlns="http://www.w3.org/2000/svg">
    <g fill="none" fill-rule="evenodd">
        <path d="M22 43C10.402 43 1 33.597 1 22 1 10.402 10.402 1 22 1s21 9.402 21 21c0 11.597-9.402 21-21 21z" stroke="#73FFEB" stroke-width=".432"/>
        <path d="M22 11.79c-2.772 0-3.12.012-4.21.062-1.086.05-1.828.222-2.477.474-.672.26-1.241.61-1.809 1.178a4.99 4.99 0 0 0-1.177 1.808c-.252.65-.426 1.391-.474 2.478-.051 1.09-.062 1.437-.062 4.21 0 2.773.01 3.12.062 4.21.048 1.086.222 1.828.474 2.478.26.67.61 1.24 1.177 1.808a5.008 5.008 0 0 0 1.809 1.178c.649.252 1.39.424 2.477.474 1.09.049 1.438.062 4.21.062 2.772 0 3.12-.013 4.21-.062 1.086-.05 1.828-.222 2.477-.474a5.008 5.008 0 0 0 1.809-1.178 5.025 5.025 0 0 0 1.178-1.808c.252-.65.424-1.392.474-2.479.05-1.089.062-1.436.062-4.21 0-2.772-.013-3.119-.062-4.21-.05-1.086-.222-1.827-.474-2.477a5.017 5.017 0 0 0-1.178-1.808 4.985 4.985 0 0 0-1.809-1.178c-.649-.252-1.39-.424-2.477-.474-1.09-.05-1.438-.062-4.21-.062m0 1.84c2.726 0 3.049.01 4.126.06.995.045 1.535.211 1.895.351.477.186.817.406 1.174.763.357.358.579.698.764 1.174.14.36.306.9.35 1.896.05 1.077.06 1.4.06 4.126 0 2.726-.01 3.049-.06 4.125-.044.996-.21 1.536-.35 1.896a3.161 3.161 0 0 1-.764 1.174 3.16 3.16 0 0 1-1.174.764c-.36.14-.9.306-1.895.351-1.077.05-1.4.06-4.126.06-2.726 0-3.049-.01-4.126-.06-.995-.045-1.535-.211-1.895-.351a3.175 3.175 0 0 1-1.174-.764 3.161 3.161 0 0 1-.764-1.174c-.14-.36-.306-.9-.352-1.896-.049-1.076-.058-1.4-.058-4.125 0-2.726.01-3.05.058-4.126.046-.995.213-1.536.352-1.896.185-.476.407-.816.764-1.174a3.173 3.173 0 0 1 1.174-.763c.36-.14.9-.306 1.895-.351 1.077-.05 1.4-.06 4.126-.06" fill="#73FFEB"/>
        <path d="M22 25.403a3.404 3.404 0 1 1 0-6.808 3.404 3.404 0 0 1 0 6.808m0-8.646a5.243 5.243 0 1 0 0 10.486 5.243 5.243 0 0 0 0-10.486M28.675 16.55a1.226 1.226 0 1 1-2.452 0 1.226 1.226 0 0 1 2.452 0" fill="#73FFEB"/>
    </g>
</svg>
