<svg width="44" height="44" viewBox="0 0 44 44" xmlns="http://www.w3.org/2000/svg">
    <g fill="none" fill-rule="evenodd">
        <path d="M22 43C10.403 43 1 33.598 1 22S10.403 1 22 1c11.598 0 21 9.402 21 21s-9.402 21-21 21z" stroke="#73FFEB" stroke-width=".432"/>
        <path fill="#73FFEB" d="M13.038 30.287h3.854v-12.45h-3.854zM14.946 16.207c1.26 0 2.279-1.03 2.279-2.298a2.288 2.288 0 0 0-2.279-2.297 2.288 2.288 0 0 0-2.278 2.297 2.288 2.288 0 0 0 2.278 2.298M23.052 23.752c0-1.75.806-2.793 2.348-2.793 1.417 0 2.098 1 2.098 2.793v6.535h3.836v-7.882c0-3.335-1.891-4.948-4.53-4.948-2.64 0-3.752 2.058-3.752 2.058v-1.677h-3.697v12.449h3.697v-6.535"/>
    </g>
</svg>
