<svg width="44" height="44" viewBox="0 0 44 44" xmlns="http://www.w3.org/2000/svg">
    <g fill="none" fill-rule="evenodd">
        <path d="M22 43C10.402 43 1 33.598 1 22S10.402 1 22 1s21 9.402 21 21-9.402 21-21 21z" stroke="#73FFEB" stroke-width=".432"/>
        <path d="M19.618 25.463v-6.926L25.705 22l-6.087 3.463zm13.54-9.105a2.927 2.927 0 0 0-2.06-2.073c-1.815-.49-9.098-.49-9.098-.49s-7.283 0-9.099.49a2.93 2.93 0 0 0-2.06 2.073c-.485 1.828-.485 5.642-.485 5.642s0 3.814.486 5.641a2.927 2.927 0 0 0 2.06 2.073c1.815.49 9.098.49 9.098.49s7.283 0 9.099-.49a2.924 2.924 0 0 0 2.058-2.073c.487-1.827.487-5.641.487-5.641s0-3.814-.487-5.642z" fill="#73FFEB"/>
    </g>
</svg>
