<?xml version="1.0" encoding="UTF-8"?>
<svg width="212px" height="53px" viewBox="0 0 212 53" version="1.1" xmlns="http://www.w3.org/2000/svg" xmlns:xlink="http://www.w3.org/1999/xlink">
    <title>Group 28</title>
    <defs>
        <polygon id="path-1" points="0 52.0349219 212 52.0349219 212 0 0 0"></polygon>
    </defs>
    <g id="Symbols" stroke="none" stroke-width="1" fill="none" fill-rule="evenodd">
        <g id="header-desk-oscuro" transform="translate(-40.000000, -14.000000)">
            <g id="Group-28" transform="translate(40.000000, 14.000000)">
                <path d="M42.4169124,4.55195618 L2.41120959,4.55195618 C1.08674235,4.55195618 0,5.63869854 0,6.96316578 L0,27.781074 C0,29.1055412 1.08674235,30.1922836 2.41120959,30.1922836 L42.4169124,30.1922836 C43.7413797,30.1922836 44.828122,29.1055412 44.828122,27.781074 L44.828122,6.96316578 C44.828122,5.63869854 43.7413797,4.55195618 42.4169124,4.55195618 L42.4169124,4.55195618 Z M3.19230566,26.9660172 L41.6358164,26.9660172 L41.6358164,7.74426184 L3.19230566,7.74426184 L3.19230566,26.9660172 Z" id="Fill-1" fill="#FFFFFF"></path>
                <mask id="mask-2" fill="white">
                    <use xlink:href="#path-1"></use>
                </mask>
                <g id="Clip-4"></g>
                <polygon id="Fill-3" fill="#60A4D9" mask="url(#mask-2)" points="12.5314977 22.9927513 31.651371 22.9927513 31.651371 19.8004457 12.5314977 19.8004457"></polygon>
                <path d="M70.1237483,8.40452574 C69.4570998,7.86319221 68.7904513,7.46245597 68.1241424,7.2016378 C67.4571543,6.94115925 66.811901,6.81108977 66.1870241,6.81108977 C65.3954002,6.81108977 64.7498074,6.99855283 64.2499059,7.37347894 C63.7500044,7.74840505 63.5000537,8.23811832 63.5000537,8.84193954 C63.5000537,9.25897692 63.625029,9.60231958 63.8749798,9.87298635 C64.1249305,10.1439927 64.4529909,10.3783215 64.8591608,10.5759728 C65.2653308,10.7743033 65.723121,10.9458048 66.2338899,11.0914962 C66.7439796,11.2375272 67.2493148,11.3937464 67.7492163,11.5601538 C69.7488222,12.2268024 71.2118491,13.1172519 72.1389761,14.2315024 C73.0657636,15.3457529 73.5293271,16.7989312 73.5293271,18.5900184 C73.5293271,19.7983401 73.3262422,20.8918746 72.9200722,21.8706219 C72.5139023,22.8500485 71.9202693,23.6878589 71.1391732,24.3857512 C70.3580771,25.0836436 69.3997062,25.6253167 68.2647397,26.0104311 C67.1294335,26.3955454 65.8433419,26.5881025 64.4061251,26.5881025 C61.4274322,26.5881025 58.6674463,25.7034263 56.1265068,23.9327155 L58.7509896,18.9961884 C59.6672492,19.8085283 60.5733207,20.4126891 61.4692039,20.8083313 C62.3644079,21.2039734 63.2501029,21.4019643 64.1249305,21.4019643 C65.1247335,21.4019643 65.869152,21.1730692 66.3588653,20.7145997 C66.8478993,20.2564699 67.0930956,19.7358524 67.0930956,19.1524076 C67.0930956,18.7981975 67.0306079,18.4915324 66.9056325,18.2307142 C66.7806571,17.9702357 66.5721385,17.7308128 66.2807557,17.5121059 C65.9886937,17.293399 65.609013,17.090314 65.1403554,16.9028509 C64.6716978,16.7153879 64.1038749,16.5072088 63.437566,16.2779741 C62.6456025,16.0280233 61.8699401,15.7522625 61.1098997,15.4500123 C60.3491801,15.1481016 59.6726829,14.7470258 59.0790499,14.2471243 C58.4854169,13.7472228 58.0058919,13.1172519 57.6418332,12.3568718 C57.2770953,11.5964918 57.0950659,10.6333664 57.0950659,9.46681639 C57.0950659,8.30060601 57.2876231,7.24374907 57.673077,6.29556637 C58.0581913,5.34806288 58.5995249,4.53538336 59.2977568,3.85854664 C59.9953096,3.18204953 60.8490815,2.6556587 61.8597519,2.28073259 C62.8697431,1.90580648 63.9999551,1.71834342 65.2497089,1.71834342 C66.4159192,1.71834342 67.6344291,1.87999635 68.9052384,2.20262298 C70.1753686,2.52558923 71.3938784,2.99934097 72.560768,3.62421782 L70.1237483,8.40452574 Z" id="Fill-5" fill="#FFFFFF" mask="url(#mask-2)"></path>
                <path d="M89.6198042,17.9651076 C89.6198042,17.4652061 89.5308272,16.991794 89.3542316,16.5435128 C89.1769567,16.0959108 88.9215723,15.7053627 88.5887574,15.3718687 C88.2552633,15.0390538 87.8647153,14.7734812 87.4171133,14.5751507 C86.9688321,14.3774994 86.4848921,14.2783342 85.9642746,14.2783342 C85.4643731,14.2783342 84.9957155,14.3720657 84.5583017,14.5595288 C84.1208879,14.7469918 83.7405281,15.00781 83.4179015,15.3406248 C83.0945956,15.6741189 82.8344567,16.0646669 82.6368054,16.5122689 C82.4384749,16.9605502 82.3399889,17.4339623 82.3399889,17.9338638 C82.3399889,18.4337653 82.4337204,18.9024229 82.6211835,19.3398367 C82.8086465,19.7772505 83.0687855,20.1576103 83.4022795,20.480237 C83.7350944,20.8032032 84.1256424,21.0636818 84.5739236,21.261333 C85.0215256,21.4596635 85.495617,21.5581495 85.9955185,21.5581495 C86.49542,21.5581495 86.9640776,21.464418 87.4014914,21.2769549 C87.8389052,21.0894919 88.2189254,20.8293529 88.5418916,20.4958589 C88.8645183,20.163044 89.1246572,19.7772505 89.3229877,19.3398367 C89.520639,18.9024229 89.6198042,18.4446327 89.6198042,17.9651076 L89.6198042,17.9651076 Z M82.4962081,33.9307112 L76.8410726,33.9307112 L76.8410726,9.90419623 L82.4962081,9.90419623 L82.4962081,11.6850953 C83.7041901,10.1650144 85.349586,9.40429475 87.4327352,9.40429475 C88.57789,9.40429475 89.6456143,9.62843536 90.6352291,10.0760374 C91.6241646,10.523979 92.4833703,11.1335735 93.2128461,11.9038022 C93.9416427,12.67471 94.5094656,13.5807814 94.9156355,14.6220165 C95.3218055,15.6639307 95.5248905,16.7778416 95.5248905,17.9651076 C95.5248905,19.1523736 95.3218055,20.2567756 94.9156355,21.2769549 C94.5094656,22.2978135 93.9470764,23.1936968 93.228468,23.9639254 C92.5098597,24.7348333 91.6608422,25.3386545 90.6820949,25.7760683 C89.7026683,26.2134821 88.6403777,26.432189 87.4952229,26.432189 C85.495617,26.432189 83.8288259,25.7448244 82.4962081,24.3700954 L82.4962081,33.9307112 Z" id="Fill-6" fill="#FFFFFF" mask="url(#mask-2)"></path>
                <path d="M103.991564,17.8714101 C103.991564,18.3923672 104.085296,18.8763071 104.272759,19.3242487 C104.460222,19.77253 104.714927,20.163078 105.038233,20.4958928 C105.36086,20.8290473 105.745974,21.0895258 106.194255,21.2769889 C106.641857,21.464452 107.126137,21.5581835 107.647094,21.5581835 C108.146656,21.5581835 108.620407,21.464452 109.068689,21.2769889 C109.51663,21.0895258 109.901405,20.8290473 110.224711,20.4958928 C110.547338,20.163078 110.807476,19.7772845 111.005807,19.3398707 C111.203458,18.9024569 111.302623,18.4337992 111.302623,17.9338977 C111.302623,17.4339963 111.203458,16.9602445 111.005807,16.5123029 C110.807476,16.0647009 110.547338,15.6741529 110.224711,15.3406588 C109.901405,15.0075044 109.51663,14.7470258 109.068689,14.5595627 C108.620407,14.3720997 108.146656,14.2783682 107.647094,14.2783682 C107.126137,14.2783682 106.641857,14.3720997 106.194255,14.5595627 C105.745974,14.7470258 105.36086,15.0075044 105.038233,15.3406588 C104.714927,15.6741529 104.460222,16.0541731 104.272759,16.4810591 C104.085296,16.9082846 103.991564,17.3715086 103.991564,17.8714101 L103.991564,17.8714101 Z M111.11516,9.90423019 L116.80154,9.90423019 L116.80154,25.9323215 L111.11516,25.9323215 L111.11516,24.1514224 C109.906839,25.6721825 108.271971,26.4322229 106.209877,26.4322229 C105.042988,26.4322229 103.970509,26.2186101 102.991761,25.7917242 C102.012335,25.3648382 101.158563,24.7661111 100.429766,23.9952032 C99.7002904,23.2249746 99.1331468,22.3189031 98.7269768,21.2769889 C98.3208069,20.2354143 98.1177219,19.1007873 98.1177219,17.8714101 C98.1177219,16.7259157 98.3153731,15.6374753 98.7113549,14.6064285 C99.1066574,13.5753817 99.6588584,12.674744 100.367279,11.9038361 C101.07502,11.1336075 101.918603,10.5240129 102.89803,10.0760713 C103.876777,9.62846932 104.960123,9.40432871 106.147389,9.40432871 C108.146656,9.40432871 109.802919,10.1025607 111.11516,11.4976662 L111.11516,9.90423019 Z" id="Fill-7" fill="#FFFFFF" mask="url(#mask-2)"></path>
                <path d="M132.735458,15.0907081 C131.756371,14.4243992 130.767096,14.0909051 129.767633,14.0909051 C129.22562,14.0909051 128.720964,14.1846366 128.252306,14.3720997 C127.783309,14.5595627 127.372045,14.8251354 127.017835,15.1688177 C126.663625,15.5124999 126.387864,15.9186699 126.190213,16.3873275 C125.991882,16.8559852 125.893396,17.382376 125.893396,17.9651416 C125.893396,18.5275308 125.991882,19.0430542 126.190213,19.5117118 C126.387864,19.9803694 126.658531,20.3865394 127.002213,20.7302217 C127.346235,21.0739039 127.757159,21.3394766 128.236345,21.5269396 C128.715191,21.7144027 129.22562,21.8081342 129.767633,21.8081342 C130.829923,21.8081342 131.818859,21.4440755 132.735458,20.7145997 L132.735458,25.5261515 C131.340013,26.1299727 130.017244,26.4322229 128.76749,26.4322229 C127.60094,26.4322229 126.491784,26.2342321 125.44036,25.8385899 C124.388258,25.4429478 123.460791,24.8754645 122.659319,24.1358005 C121.857507,23.3968157 121.217008,22.5111207 120.738162,21.4800739 C120.258637,20.4490271 120.019554,19.2984386 120.019554,18.0276293 C120.019554,16.7571595 120.248109,15.5960433 120.706579,14.5439408 C121.164708,13.492178 121.789585,12.5861066 122.581549,11.8257265 C123.372833,11.0653465 124.315242,10.4717135 125.409117,10.0448275 C126.502311,9.6179415 127.674295,9.40432871 128.923709,9.40432871 C130.298438,9.40432871 131.568568,9.69605111 132.735458,10.2791563 L132.735458,15.0907081 Z" id="Fill-8" fill="#FFFFFF" mask="url(#mask-2)"></path>
                <path d="M147.669879,15.5905077 C147.482416,14.7992234 147.096962,14.1641583 146.513857,13.6846333 C145.930412,13.2057874 145.221992,12.9660249 144.389275,12.9660249 C143.514448,12.9660249 142.800594,13.1955992 142.249072,13.6533894 C141.696871,14.1118589 141.347755,14.7577913 141.202404,15.5905077 L147.669879,15.5905077 Z M141.046184,18.8711111 C141.046184,21.3081309 142.191339,22.5266407 144.483007,22.5266407 C145.711705,22.5266407 146.638832,22.0267392 147.263709,21.0269363 L152.731381,21.0269363 C151.62698,24.6933333 148.867333,26.5258526 144.451424,26.5258526 C143.09741,26.5258526 141.858524,26.3231072 140.733746,25.9165977 C139.608968,25.5104277 138.645503,24.9324166 137.843351,24.1825644 C137.041539,23.4327122 136.422096,22.5375081 135.984682,21.4955939 C135.547268,20.4543589 135.328561,19.2881485 135.328561,17.9962835 C135.328561,16.6636657 135.536401,15.4607778 135.953438,14.3876197 C136.370136,13.3151409 136.963429,12.4036357 137.734337,11.6537835 C138.504905,10.9039313 139.437126,10.3259202 140.530661,9.91975023 C141.624195,9.51358027 142.858327,9.3104953 144.233056,9.3104953 C145.58673,9.3104953 146.80524,9.51358027 147.888586,9.91975023 C148.971253,10.3259202 149.888192,10.9147987 150.638044,11.6850273 C151.387896,12.4559352 151.960474,13.3986842 152.356455,14.5125951 C152.751758,15.6271852 152.950088,16.8823726 152.950088,18.2774781 L152.950088,18.8711111 L141.046184,18.8711111 Z" id="Fill-9" fill="#FFFFFF" mask="url(#mask-2)"></path>
                <path d="M168.946392,17.9651076 C168.946392,17.4652061 168.852661,16.991794 168.665198,16.5435128 C168.477735,16.0959108 168.217256,15.7053627 167.884102,15.3718687 C167.550947,15.0390538 167.165493,14.7734812 166.72808,14.5751507 C166.290666,14.3774994 165.81148,14.2783342 165.290863,14.2783342 C164.790961,14.2783342 164.322304,14.3720657 163.88489,14.5595288 C163.447476,14.7469918 163.067116,15.00781 162.74449,15.3406248 C162.421184,15.6741189 162.161384,16.0646669 161.963394,16.5122689 C161.765063,16.9605502 161.666577,17.4339623 161.666577,17.9338638 C161.666577,18.4337653 161.760309,18.9024229 161.947772,19.3398367 C162.135235,19.7772505 162.395374,20.1576103 162.728868,20.480237 C163.061683,20.8032032 163.452231,21.0636818 163.900512,21.261333 C164.348114,21.4596635 164.822205,21.5581495 165.322107,21.5581495 C165.822008,21.5581495 166.290666,21.464418 166.72808,21.2769549 C167.165493,21.0894919 167.545174,20.8293529 167.86848,20.4958589 C168.191106,20.163044 168.451245,19.7772505 168.649576,19.3398367 C168.847227,18.9024229 168.946392,18.4446327 168.946392,17.9651076 L168.946392,17.9651076 Z M161.822796,-0.000101882096 L161.822796,11.4976322 C163.155414,10.1025267 164.822205,9.40429475 166.821811,9.40429475 C168.009077,9.40429475 169.097178,9.62843536 170.086793,10.0760374 C171.076068,10.523979 171.919312,11.1281398 172.617544,11.8881802 C173.315097,12.6488999 173.862204,13.5441039 174.257846,14.5751507 C174.653488,15.6061975 174.851479,16.7051657 174.851479,17.8713761 C174.851479,19.0586421 174.648394,20.1732322 174.242224,21.2144673 C173.836054,22.2563815 173.26857,23.1624529 172.539434,23.9326816 C171.810298,24.7035894 170.950753,25.3128444 169.961817,25.7604464 C168.972203,26.2080484 167.904818,26.432189 166.759323,26.432189 C164.676174,26.432189 163.030439,25.6721485 161.822796,24.1513885 L161.822796,25.9322875 L156.167661,25.9322875 L156.167661,-0.000101882096 L161.822796,-0.000101882096 Z" id="Fill-10" fill="#FFFFFF" mask="url(#mask-2)"></path>
                <path d="M183.318322,17.8714101 C183.318322,18.3923672 183.411714,18.8763071 183.599517,19.3242487 C183.78698,19.77253 184.041685,20.163078 184.364991,20.4958928 C184.687618,20.8290473 185.072732,21.0895258 185.521013,21.2769889 C185.968615,21.464452 186.452895,21.5581835 186.973852,21.5581835 C187.473753,21.5581835 187.947165,21.464452 188.395447,21.2769889 C188.843049,21.0895258 189.228163,20.8290473 189.551469,20.4958928 C189.874096,20.163078 190.134234,19.7772845 190.332565,19.3398707 C190.530216,18.9024569 190.629381,18.4337992 190.629381,17.9338977 C190.629381,17.4339963 190.530216,16.9602445 190.332565,16.5123029 C190.134234,16.0647009 189.874096,15.6741529 189.551469,15.3406588 C189.228163,15.0075044 188.843049,14.7470258 188.395447,14.5595627 C187.947165,14.3720997 187.473753,14.2783682 186.973852,14.2783682 C186.452895,14.2783682 185.968615,14.3720997 185.521013,14.5595627 C185.072732,14.7470258 184.687618,15.0075044 184.364991,15.3406588 C184.041685,15.6741529 183.78698,16.0541731 183.599517,16.4810591 C183.411714,16.9082846 183.318322,17.3715086 183.318322,17.8714101 L183.318322,17.8714101 Z M190.441918,9.90423019 L196.128298,9.90423019 L196.128298,25.9323215 L190.441918,25.9323215 L190.441918,24.1514224 C189.233597,25.6721825 187.598729,26.4322229 185.536635,26.4322229 C184.370085,26.4322229 183.297267,26.2186101 182.318519,25.7917242 C181.339093,25.3648382 180.485321,24.7661111 179.756524,23.9952032 C179.027048,23.2249746 178.459565,22.3189031 178.053735,21.2769889 C177.647565,20.2354143 177.44448,19.1007873 177.44448,17.8714101 C177.44448,16.7259157 177.642131,15.6374753 178.038113,14.6064285 C178.433415,13.5753817 178.985616,12.674744 179.694037,11.9038361 C180.401777,11.1336075 181.245361,10.5240129 182.224788,10.0760713 C183.203535,9.62846932 184.286881,9.40432871 185.474147,9.40432871 C187.473753,9.40432871 189.129677,10.1025607 190.441918,11.4976662 L190.441918,9.90423019 Z" id="Fill-11" fill="#FFFFFF" mask="url(#mask-2)"></path>
                <path d="M199.971019,9.90426415 L205.626154,9.90426415 L205.626154,12.5287469 C206.229975,11.5707156 206.9693,10.8368249 207.844467,10.326056 C208.719295,9.81596633 209.739814,9.56058188 210.906364,9.56058188 L211.390643,9.56058188 C211.567239,9.56058188 211.770324,9.58163751 211.999898,9.62306957 L211.999898,15.0282543 C211.250046,14.6533282 210.437706,14.4658652 209.562878,14.4658652 C208.250637,14.4658652 207.266116,14.8564132 206.610335,15.6375093 C205.954215,16.4186053 205.626154,17.5590056 205.626154,19.05871 L205.626154,25.9323554 L199.971019,25.9323554 L199.971019,9.90426415 Z" id="Fill-12" fill="#FFFFFF" mask="url(#mask-2)"></path>
                <path d="M83.9673516,42.6015228 L83.0473563,43.6821522 C82.5070416,43.1272344 81.7622834,42.7913631 80.827685,42.8059662 C79.4841998,42.8059662 78.5203952,43.8135801 78.5203952,45.2884933 C78.5203952,46.7634064 79.4841998,47.7710203 80.827685,47.7710203 C81.8060927,47.7710203 82.5946602,47.4494125 83.1203718,46.8364219 L84.0549702,47.7710203 C83.3540214,48.6910156 82.2295827,49.2167272 80.7546695,49.2167272 C78.4473797,49.2167272 76.8410386,47.6249893 76.8410386,45.2884933 C76.8410386,42.9373941 78.4473797,41.3310531 80.7546695,41.3310531 C82.1565672,41.3310531 83.2517997,41.7837492 83.9673516,42.6015228" id="Fill-13" fill="#FFFFFF" mask="url(#mask-2)"></path>
                <path d="M86.4499126,45.2885612 C86.4499126,46.7926805 87.4283203,47.8145579 88.830218,47.8145579 C90.2175125,47.8145579 91.1959202,46.7926805 91.1959202,45.2885612 C91.1959202,43.7990449 90.2175125,42.7768279 88.830218,42.7768279 C87.4283203,42.7768279 86.4499126,43.7990449 86.4499126,45.2885612 M92.8752768,45.2739581 C92.8752768,47.6104541 91.2251264,49.2164556 88.830218,49.2164556 C86.4207064,49.2164556 84.7705561,47.6104541 84.7705561,45.2739581 C84.7705561,42.9228589 86.4207064,41.331121 88.830218,41.331121 C91.2251264,41.331121 92.8752768,42.9228589 92.8752768,45.2739581" id="Fill-14" fill="#FFFFFF" mask="url(#mask-2)"></path>
                <polygon id="Fill-15" fill="#FFFFFF" mask="url(#mask-2)" points="101.637205 49.158213 99.6657864 43.404931 97.6943678 49.158213 95.971202 49.158213 93.1089943 41.3893636 94.8321601 41.3893636 96.847388 47.4934595 98.8042034 41.3893636 100.541972 41.3893636 102.513391 47.4934595 104.499413 41.3893636 106.207636 41.3893636 103.374974 49.158213"></polygon>
                <path d="M108.033363,45.2885612 C108.033363,46.7926805 109.011771,47.8145579 110.414008,47.8145579 C111.800963,47.8145579 112.77971,46.7926805 112.77971,45.2885612 C112.77971,43.7990449 111.800963,42.7768279 110.414008,42.7768279 C109.011771,42.7768279 108.033363,43.7990449 108.033363,45.2885612 M114.458387,45.2739581 C114.458387,47.6104541 112.808577,49.2164556 110.414008,49.2164556 C108.004157,49.2164556 106.354006,47.6104541 106.354006,45.2739581 C106.354006,42.9228589 108.004157,41.331121 110.414008,41.331121 C112.808577,41.331121 114.458387,42.9228589 114.458387,45.2739581" id="Fill-16" fill="#FFFFFF" mask="url(#mask-2)"></path>
                <path d="M117.890252,42.937496 C118.415963,41.8857331 119.350562,41.3311549 120.577222,41.3311549 L120.577222,42.937496 C119.01503,42.8495378 118.022359,43.7695331 117.890252,45.0984152 L117.890252,49.1580771 L116.211575,49.1580771 L116.211575,41.3892277 L117.890252,41.3892277 L117.890252,42.937496 Z" id="Fill-17" fill="#FFFFFF" mask="url(#mask-2)"></path>
                <polygon id="Fill-18" fill="#FFFFFF" mask="url(#mask-2)" points="123.716957 46.9822831 123.716957 49.158145 122.038279 49.158145 122.038279 38.3229842 123.716957 38.3229842 123.716957 44.8651731 127.149025 41.3892957 129.076634 41.3892957 126.200163 44.3978739 129.295341 49.158145 127.309319 49.158145 125.031236 45.5949886"></polygon>
                <path d="M130.65326,49.1581111 L132.317673,49.1581111 L132.317673,41.3892617 L130.65326,41.3892617 L130.65326,49.1581111 Z M132.464384,39.16993 C132.464384,39.7540541 132.040894,40.177544 131.485636,40.177544 C130.930719,40.177544 130.507568,39.7540541 130.507568,39.16993 C130.507568,38.5708633 130.930719,38.1473734 131.485636,38.1473734 C132.040894,38.1473734 132.464384,38.5708633 132.464384,39.16993 L132.464384,39.16993 Z" id="Fill-19" fill="#FFFFFF" mask="url(#mask-2)"></path>
                <path d="M142.233824,44.3247905 L142.233824,49.1580771 L140.554128,49.1580771 L140.554128,44.7920897 C140.554128,43.6238417 139.852839,42.9082898 138.684931,42.9082898 C137.400198,42.9228929 136.596348,43.813682 136.480202,45.0253997 L136.480202,49.1580771 L134.800506,49.1580771 L134.800506,41.3892277 L136.480202,41.3892277 L136.480202,42.8790836 C137.034781,41.7984541 138.028131,41.3311549 139.341731,41.3311549 C141.152515,41.3311549 142.233824,42.4701968 142.233824,44.3247905" id="Fill-20" fill="#FFFFFF" mask="url(#mask-2)"></path>
                <path d="M149.826893,45.0693109 C149.826893,43.6674133 148.906897,42.6890055 147.592618,42.6890055 C146.263736,42.6890055 145.344081,43.6820164 145.329138,45.0693109 C145.344081,46.4712085 146.249473,47.4642194 147.592618,47.4642194 C148.906897,47.4642194 149.826893,46.4712085 149.826893,45.0693109 L149.826893,45.0693109 Z M151.491986,48.3988178 C151.491986,50.6330921 149.900248,52.0349898 147.46119,52.0349898 C146.249473,52.0349898 145.183107,51.6553092 144.234245,51.0127727 L144.949797,49.8007154 C145.679612,50.3410301 146.438973,50.6476952 147.388515,50.6476952 C148.863088,50.6476952 149.826893,49.7861123 149.826893,48.4426271 L149.826893,47.4642194 C149.301521,48.3111992 148.424995,48.7784984 147.257087,48.7784984 C145.15424,48.7784984 143.752003,47.259776 143.752003,45.0255016 C143.752003,42.8350365 145.139297,41.3455203 147.198335,41.3309172 C148.396128,41.3163141 149.286578,41.7982164 149.826893,42.6451962 L149.826893,41.3893296 L151.491986,41.3893296 L151.491986,48.3988178 Z" id="Fill-21" fill="#FFFFFF" mask="url(#mask-2)"></path>
                <path d="M162.634151,42.1050513 L162.020482,43.3463149 C161.334475,42.922825 160.472892,42.6599691 159.786207,42.6599691 C159.129407,42.6599691 158.647505,42.8790157 158.647505,43.4339335 C158.647505,44.8650373 162.780182,44.091073 162.765956,46.9091317 C162.765956,48.5012093 161.349418,49.2164216 159.786207,49.2164216 C158.647505,49.2164216 157.435448,48.836741 156.661483,48.1361318 L157.26021,46.9383379 C157.931953,47.5374047 159.012922,47.9021426 159.859562,47.9021426 C160.575454,47.9021426 161.130032,47.6542295 161.130032,47.0701055 C161.130032,45.4783675 157.040824,46.3691566 157.056107,43.5653614 C157.056107,41.9882265 158.428458,41.3164839 159.917975,41.3164839 C160.896722,41.3164839 161.933203,41.6085459 162.634151,42.1050513" id="Fill-22" fill="#FFFFFF" mask="url(#mask-2)"></path>
                <path d="M170.943214,45.2447519 C170.943214,43.7990449 169.964127,42.7330186 168.577172,42.7330186 C167.189538,42.7330186 166.21113,43.7841022 166.21113,45.2447519 C166.21113,46.7488712 167.189538,47.7853517 168.577172,47.7853517 C169.964127,47.7853517 170.943214,46.7342681 170.943214,45.2447519 M172.636834,45.3031643 C172.636834,47.6250572 171.176524,49.2164556 168.956513,49.2164556 C167.715589,49.2164556 166.78133,48.7199501 166.21113,47.8145579 L166.21113,51.9910446 L164.532113,51.9910446 L164.532113,41.3891938 L166.21113,41.3891938 L166.21113,42.7330186 C166.78133,41.8272868 167.715589,41.331121 168.927646,41.331121 C171.133054,41.331121 172.636834,42.937462 172.636834,45.3031643" id="Fill-23" fill="#FFFFFF" mask="url(#mask-2)"></path>
                <path d="M179.033127,46.4274332 L179.033127,45.7122209 L176.930281,45.7122209 C175.835048,45.7122209 175.32394,46.0039433 175.32394,46.7487014 C175.32394,47.4496502 175.893121,47.9023463 176.82772,47.9023463 C178.025174,47.9023463 178.945169,47.274413 179.033127,46.4274332 L179.033127,46.4274332 Z M179.047391,48.2090114 C178.492473,48.8953572 177.602024,49.2312285 176.477585,49.2312285 C174.797889,49.2312285 173.746465,48.1944083 173.746465,46.8217169 C173.746465,45.4052162 174.812492,44.4998239 176.681689,44.4852208 L179.033127,44.4852208 L179.033127,44.2519108 C179.033127,43.2731635 178.404515,42.6890395 177.178194,42.6890395 C176.433776,42.6890395 175.659472,42.9522349 174.885507,43.4776069 L174.199501,42.3093589 C175.280131,41.6668225 176.068698,41.3309512 177.542932,41.3309512 C179.543896,41.3309512 180.667995,42.3531682 180.682938,44.0617309 L180.697202,49.158213 L179.047391,49.158213 L179.047391,48.2090114 Z" id="Fill-24" fill="#FFFFFF" mask="url(#mask-2)"></path>
                <path d="M189.342712,42.6015228 L188.422378,43.6821522 C187.882402,43.1272344 187.137644,42.7913631 186.203046,42.8059662 C184.8599,42.8059662 183.895756,43.8135801 183.895756,45.2884933 C183.895756,46.7634064 184.8599,47.7710203 186.203046,47.7710203 C187.181793,47.7710203 187.969681,47.4494125 188.495733,46.8364219 L189.430671,47.7710203 C188.729043,48.6910156 187.605283,49.2167272 186.129691,49.2167272 C183.822741,49.2167272 182.216739,47.6249893 182.216739,45.2884933 C182.216739,42.9373941 183.822741,41.3310531 186.129691,41.3310531 C187.531588,41.3310531 188.627161,41.7837492 189.342712,42.6015228" id="Fill-25" fill="#FFFFFF" mask="url(#mask-2)"></path>
                <path d="M196.249605,44.6895963 C196.191533,43.4340693 195.358816,42.6743685 194.089026,42.6743685 C192.862026,42.6743685 192.000103,43.4486724 191.810942,44.6895963 L196.249605,44.6895963 Z M197.709915,45.9162568 L191.839809,45.9162568 C192.102325,47.1140506 193.02232,47.8584691 194.248981,47.8584691 C195.0963,47.8584691 195.870264,47.5375405 196.439785,46.9530769 L197.330235,47.9022784 C196.570874,48.7346551 195.461378,49.2165574 194.117892,49.2165574 C191.722984,49.2165574 190.145509,47.6251591 190.145509,45.2886631 C190.145509,42.9375639 191.766793,41.3454864 194.073743,41.3308833 C196.804523,41.3308833 197.914359,43.1124615 197.709915,45.9162568 L197.709915,45.9162568 Z" id="Fill-26" fill="#FFFFFF" mask="url(#mask-2)"></path>
                <path d="M204.500663,42.1050513 L203.886993,43.3463149 C203.200987,42.922825 202.339404,42.6599691 201.652719,42.6599691 C200.995919,42.6599691 200.514016,42.8790157 200.514016,43.4339335 C200.514016,44.8650373 204.646694,44.091073 204.632467,46.9091317 C204.632467,48.5012093 203.215929,49.2164216 201.652719,49.2164216 C200.514016,49.2164216 199.301619,48.836741 198.527995,48.1361318 L199.126722,46.9383379 C199.798464,47.5374047 200.879433,47.9021426 201.726074,47.9021426 C202.441965,47.9021426 202.996543,47.6542295 202.996543,47.0701055 C202.996543,45.4783675 198.907336,46.3691566 198.922618,43.5653614 C198.922618,41.9882265 200.29497,41.3164839 201.784826,41.3164839 C202.763233,41.3164839 203.799714,41.6085459 204.500663,42.1050513" id="Fill-27" fill="#FFFFFF" mask="url(#mask-2)"></path>
            </g>
        </g>
    </g>
</svg>